<?xml version="1.0" standalone="no"?>
<!DOCTYPE svg PUBLIC "-//W3C//DTD SVG 20010904//EN"
 "http://www.w3.org/TR/2001/REC-SVG-20010904/DTD/svg10.dtd">
<svg version="1.0" xmlns="http://www.w3.org/2000/svg"
 width="866.000000pt" height="866.000000pt" viewBox="0 0 866.000000 866.000000"
 preserveAspectRatio="xMidYMid meet">
<metadata>
Created by potrace 1.11, written by Peter Selinger 2001-2013
</metadata>
<g transform="translate(0.000000,866.000000) scale(0.100000,-0.100000)"
fill="#000000" stroke="none">
<path d="M1491 8633 c-65 -160 -65 -946 0 -2311 20 -414 20 -434 3 -460 -10
-15 -187 -270 -394 -567 -207 -297 -379 -545 -383 -551 -5 -8 11 -11 56 -8
164 10 477 11 477 2 0 -5 -121 -354 -270 -776 -148 -421 -268 -767 -267 -768
1 0 174 33 385 74 211 41 385 72 388 70 2 -3 86 -340 185 -749 100 -409 184
-747 188 -750 3 -4 82 52 174 122 92 71 172 129 176 129 5 0 211 -340 457
-755 247 -415 452 -755 456 -755 4 0 77 90 163 200 86 110 158 200 160 200 2
0 192 -206 421 -458 229 -251 431 -472 449 -490 l32 -34 428 474 c235 260 435
481 444 490 15 16 26 4 160 -173 79 -104 147 -186 151 -182 4 4 204 332 444
728 240 396 440 726 445 734 7 12 48 -11 202 -112 107 -69 194 -125 195 -124
1 1 90 343 198 761 107 417 197 760 200 763 2 3 168 -33 368 -80 200 -46 364
-84 365 -83 1 1 -133 346 -297 766 -165 421 -300 768 -300 773 0 4 135 7 300
7 l301 0 -395 524 -396 525 15 98 c27 185 37 398 37 793 -1 510 -20 958 -72
1650 -23 299 -26 330 -42 330 -6 0 -57 -15 -113 -34 -375 -126 -727 -418
-1175 -976 -110 -137 -175 -206 -212 -226 -38 -20 -45 -18 -56 15 -6 17 -33
46 -65 69 -269 199 -569 337 -842 388 -152 29 -472 26 -614 -4 -286 -62 -560
-190 -786 -367 -44 -34 -91 -74 -104 -89 -56 -60 -138 -14 -128 72 6 58 -28
107 -157 227 -390 362 -1191 925 -1316 925 -21 0 -30 -7 -39 -27z m923 -1163
l354 -375 -422 -425 c-231 -234 -422 -425 -423 -425 -1 1 7 365 17 810 11 446
20 828 20 850 l0 40 50 -50 c27 -28 209 -219 404 -425z m4297 -383 c14 -463
25 -843 25 -843 -1 -1 -195 190 -432 425 l-432 426 401 422 c221 232 403 420
407 417 3 -3 17 -384 31 -847z m-3366 -603 c56 -36 346 -386 693 -833 268
-347 273 -352 282 -349 4 2 235 271 514 598 279 327 511 596 514 597 4 1 20
-17 36 -40 16 -23 131 -186 254 -362 446 -636 838 -1240 936 -1444 61 -127 55
-180 -56 -521 -68 -210 -315 -884 -332 -907 -1 -1 -197 47 -436 107 -239 60
-435 108 -436 107 0 -1 -85 -312 -188 -692 -155 -573 -190 -693 -209 -707 -49
-38 -175 -104 -257 -135 -126 -47 -250 -66 -385 -60 -141 7 -214 26 -350 92
-119 58 -142 75 -182 138 -53 84 -297 515 -503 887 -117 212 -216 388 -219
392 -5 6 -448 -64 -548 -87 -19 -4 -27 9 -81 138 -155 366 -268 706 -307 921
-11 57 -15 122 -13 180 l4 91 225 370 c638 1049 958 1535 1011 1535 5 0 19 -7
33 -16z m-639 -4036 c226 -429 249 -470 256 -443 7 27 88 881 88 930 0 11 97
-202 215 -474 141 -326 224 -505 243 -525 16 -17 190 -209 387 -426 197 -217
364 -402 372 -410 11 -13 74 46 458 430 l444 444 207 478 c114 263 210 478
213 478 3 0 33 -201 65 -447 33 -247 62 -461 66 -478 l6 -30 21 40 c11 22 114
238 228 480 114 242 211 443 214 448 5 5 283 -325 454 -540 l18 -22 -43 13
c-24 7 -112 35 -196 61 -84 26 -155 45 -158 42 -3 -2 -148 -312 -324 -687
-205 -440 -320 -675 -323 -663 -3 10 -45 216 -93 458 -48 242 -90 444 -94 448
-4 5 -250 -361 -546 -812 -410 -623 -542 -817 -550 -808 -7 7 -259 374 -560
816 -474 694 -549 800 -556 780 -4 -13 -42 -217 -84 -454 -41 -236 -77 -431
-78 -432 0 -1 -147 302 -325 673 -178 371 -325 674 -325 674 -4 0 -353 -119
-369 -125 -9 -4 76 126 190 289 167 237 210 293 219 281 6 -8 123 -227 260
-487z"/>
<path d="M3149 5266 c-87 -31 -163 -101 -202 -184 -20 -43 -22 -64 -22 -222 0
-171 1 -176 28 -231 33 -69 99 -132 175 -167 54 -26 65 -27 217 -27 155 0 162
1 222 29 73 33 144 103 176 174 20 43 22 63 22 222 0 158 -2 179 -22 222 -31
69 -99 137 -168 169 -59 28 -64 29 -225 29 -109 -1 -177 -5 -201 -14z m274
-370 c18 -7 46 -29 64 -49 113 -129 30 -317 -141 -317 -31 0 -70 7 -85 14 -58
30 -111 115 -111 176 0 34 22 91 47 120 53 64 151 88 226 56z"/>
<path d="M5088 5265 c-59 -22 -125 -72 -158 -120 -56 -81 -63 -115 -64 -285 0
-191 15 -241 99 -325 84 -84 135 -99 325 -99 190 0 241 15 325 99 84 84 99
135 99 325 0 190 -15 241 -99 325 -82 82 -128 95 -328 94 -111 0 -174 -5 -199
-14z m290 -387 c106 -71 109 -236 6 -315 -30 -22 -49 -28 -103 -31 -79 -4
-119 14 -165 71 -56 70 -45 199 21 259 60 55 171 62 241 16z"/>
<path d="M4115 2890 c-76 -14 -222 -58 -266 -81 -39 -19 -40 -21 -35 -62 20
-153 38 -277 47 -308 11 -45 45 -89 67 -89 9 0 38 23 63 51 38 44 49 51 71 46
18 -5 28 -17 37 -49 38 -125 163 -201 303 -185 104 13 145 53 171 165 20 85
31 95 63 57 14 -16 33 -40 44 -52 29 -36 75 -31 100 10 24 37 52 130 74 241
27 134 29 128 -71 171 -169 71 -247 87 -443 90 -96 2 -197 0 -225 -5z"/>
</g>
</svg>
