<?xml version="1.0" encoding="iso-8859-1"?>
<!-- Generator: Adobe Illustrator 18.1.1, SVG Export Plug-In . SVG Version: 6.00 Build 0)  -->
<svg version="1.1" id="Capa_1" xmlns="http://www.w3.org/2000/svg" xmlns:xlink="http://www.w3.org/1999/xlink" x="0px" y="0px"
	 viewBox="0 0 32 32" style="enable-background:new 0 0 32 32;" xml:space="preserve">
<g>
	<path style="fill:#010002;" d="M32,22c-0.002-4.973-4.029-9-9-9c-0.025,0-0.049,0.003-0.074,0.004C23.607,11.826,24,10.459,24,9
		c0-4.418-3.582-8-8-8S8,4.582,8,9c0,4.26,3.332,7.732,7.531,7.977C15.112,17.6,14.778,18.281,14.523,19H4c-4,0-4,4-4,4v8h32v-8
		C32,23,32,22.207,32,22z M29.883,22c-0.009,3.799-3.084,6.874-6.883,6.883c-3.801-0.009-6.876-3.084-6.885-6.883
		c0.009-3.801,3.084-6.876,6.885-6.884C26.799,15.124,29.874,18.199,29.883,22z"/>
	<path style="fill:#010002;" d="M22,26h-3v-3L22,26z M28,20l-5,5l-3-3.001l5-5L28,20z"/>
</g>
<g>
</g>
<g>
</g>
<g>
</g>
<g>
</g>
<g>
</g>
<g>
</g>
<g>
</g>
<g>
</g>
<g>
</g>
<g>
</g>
<g>
</g>
<g>
</g>
<g>
</g>
<g>
</g>
<g>
</g>
</svg>
