<?xml version="1.0" encoding="iso-8859-1"?>
<!-- Generator: Adobe Illustrator 18.1.1, SVG Export Plug-In . SVG Version: 6.00 Build 0)  -->
<svg version="1.1" id="Capa_1" xmlns="http://www.w3.org/2000/svg" xmlns:xlink="http://www.w3.org/1999/xlink" x="0px" y="0px"
	 viewBox="0 0 151.645 151.645" style="enable-background:new 0 0 151.645 151.645;" xml:space="preserve">
<g>
	<g>
		<path style="fill:#010002;" d="M89.516,136.871c0-17.775,14.219-32.257,31.869-32.77c-4.809-2.011-9.648-3.95-14.529-5.824
			c-0.871-0.334-1.891-0.979-2.25-1.748c-0.931-2.088-1.605-4.302-2.261-6.498c-0.43-1.39-0.811-2.709-2.357-3.377
			c-0.412-0.179-0.788-0.991-0.782-1.504c0.084-5.096-1.098-10.436,2.667-14.858c0.125-0.137,0.155-0.334,0.245-0.501
			c2.029-4.451,2.393-9.541,5.233-13.682c0.078-0.095,0.101-0.233,0.107-0.358c0.328-3.156,0.662-6.313,0.937-9.475
			c0.03-0.394-0.322-1.086-0.65-1.205c-1.569-0.561-1.48-1.814-1.474-3.073c0.006-6.176,0-12.351-0.006-18.521
			c-0.006-3.586-1.056-6.784-3.777-9.225c-3.085-2.775-6.259-5.46-9.428-8.145c-1.533-1.295-1.671-2.291-0.233-3.717
			c0.621-0.627,1.444-1.08,2.184-1.617c-0.149-0.239-0.328-0.483-0.477-0.722c-0.961,0-1.939-0.125-2.864,0.018
			c-3.509,0.567-7.035,1.062-10.478,1.874c-6.587,1.551-12.978,3.61-18.318,8.014c-3.664,3.013-6.575,6.522-6.939,11.492
			c-0.191,2.596-0.161,5.215-0.185,7.817c-0.03,4.236,0.03,8.485-0.054,12.721c-0.018,0.692-0.418,1.826-0.877,1.981
			c-1.724,0.555-1.766,1.653-1.533,3.085c0.155,0.979,0.024,2.005,0.251,2.966c0.597,2.655,1.217,5.299,1.981,7.912
			c0.573,1.951,1.677,3.783,1.981,5.758c0.621,3.95,2.076,7.387,4.738,10.364c0.442,0.489,0.776,1.319,0.728,1.969
			c-0.203,3.043-0.519,6.086-0.925,9.099c-0.078,0.585-0.704,1.468-1.211,1.569c-2.017,0.418-2.333,1.981-2.816,3.55
			c-0.632,2.088-1.319,4.147-2.118,6.164c-0.251,0.621-0.871,1.277-1.492,1.545c-3.598,1.575-7.244,3.001-10.86,4.523
			c-3.855,1.617-7.739,3.162-11.504,4.958c-3.872,1.856-7.626,3.932-11.415,5.967c-2.232,1.193-4.32,2.524-6.08,4.165v23.629
			c25.103,0,50.193,0,75.29,0C89.642,139.777,89.516,138.351,89.516,136.871z"/>
		<polygon style="fill:#010002;" points="132.878,122.103 122.334,132.652 111.785,122.103 107.566,126.328 118.116,136.871 
			107.566,147.42 111.785,151.645 122.334,141.09 132.878,151.645 137.102,147.42 126.553,136.871 137.102,126.328 		"/>
	</g>
</g>
<g>
</g>
<g>
</g>
<g>
</g>
<g>
</g>
<g>
</g>
<g>
</g>
<g>
</g>
<g>
</g>
<g>
</g>
<g>
</g>
<g>
</g>
<g>
</g>
<g>
</g>
<g>
</g>
<g>
</g>
</svg>
